<svg version="1" xmlns="http://www.w3.org/2000/svg" xmlns:xlink="http://www.w3.org/1999/xlink" width="273.412" height="160.766" viewBox="0 0 273.412 160.766"><defs><path id="a" d="M0 0h273.412v160.766H0z"/></defs><clipPath id="b"><use xlink:href="#a" overflow="visible"/></clipPath><path clip-path="url(#b)" fill="#5B5B5B" d="M13.257 1h8.7l9.284 27.627c2.692 7.804 5.07 16.13 7.132 24.98-.748-5.35-1.3-10.195-1.66-14.53-.358-4.335-.538-8.417-.538-12.244V1h9.33v69.246h-8.73l-10.43-31.17c-.956-2.9-1.86-5.875-2.71-8.925a161.43 161.43 0 0 1-2.35-9.595c-.06-.42-.157-.927-.29-1.526a512.32 512.32 0 0 0-.47-2.063c.088.777.162 1.442.223 1.996.06.553.104 1.023.134 1.412l.495 7.04.53 8.567c.033.48.057 1.062.073 1.75.016.687.025 1.464.025 2.33l.493 30.184h-9.24V1z"/><path clip-path="url(#b)" fill="none" stroke="#5B5B5B" stroke-width="2" stroke-miterlimit="10" d="M13.257 1h8.7l9.284 27.627c2.692 7.804 5.07 16.13 7.132 24.98-.748-5.35-1.3-10.195-1.66-14.53-.358-4.335-.538-8.417-.538-12.244V1h9.33v69.246h-8.73l-10.43-31.17c-.956-2.9-1.86-5.875-2.71-8.925a161.43 161.43 0 0 1-2.35-9.595c-.06-.42-.157-.927-.29-1.526a512.32 512.32 0 0 0-.47-2.063c.088.777.162 1.442.223 1.996.06.553.104 1.023.134 1.412l.495 7.04.53 8.567c.033.48.057 1.062.073 1.75.016.687.025 1.464.025 2.33l.493 30.184h-9.24V1z"/><path clip-path="url(#b)" fill="#5B5B5B" d="M76.574 1h7.265l14.844 69.247h-9.24l-2.6-13.5H73.12l-2.645 13.5h-8.97L76.575 1zM85.5 49.528l-2.064-11.033c-1.375-7.504-2.497-15.517-3.364-24.038a241.37 241.37 0 0 1-1.615 12.625 427.08 427.08 0 0 1-2.332 13.567l-1.704 8.88H85.5z"/><path clip-path="url(#b)" fill="none" stroke="#5B5B5B" stroke-width="2" stroke-miterlimit="10" d="M76.574 1h7.265l14.844 69.247h-9.24l-2.6-13.5H73.12l-2.645 13.5h-8.97L76.575 1zM85.5 49.528l-2.064-11.033c-1.375-7.504-2.497-15.517-3.364-24.038a241.37 241.37 0 0 1-1.615 12.625 427.08 427.08 0 0 1-2.332 13.567l-1.704 8.88H85.5z"/><path clip-path="url(#b)" fill="#5B5B5B" d="M106.344 1h30.362v8.164h-10.45v61.083h-9.15V9.164h-10.762z"/><path clip-path="url(#b)" fill="none" stroke="#5B5B5B" stroke-width="2" stroke-miterlimit="10" d="M106.344 1h30.362v8.164h-10.45v61.083h-9.15V9.164h-10.762z"/><path clip-path="url(#b)" fill="#5B5B5B" d="M151.05 1h9.328v69.246h-9.33z"/><path clip-path="url(#b)" fill="none" stroke="#5B5B5B" stroke-width="2" stroke-miterlimit="10" d="M151.05 1h9.328v69.246h-9.33z"/><path clip-path="url(#b)" fill="#5B5B5B" d="M174.72 1h9.194l4.17 25.564.718 4.62 1.48 10.045c.24 1.704.456 3.258.65 4.664.194 1.405.365 2.675.516 3.812l.45 3.408c.088-.687.163-1.3.223-1.84s.12-.985.18-1.344l1.21-8.028 1.57-10.54c.15-.956.292-1.838.427-2.645a94.22 94.22 0 0 1 .382-2.153L200.372 1h8.7l-13.588 69.246h-7.4L174.72 1z"/><path clip-path="url(#b)" fill="none" stroke="#5B5B5B" stroke-width="2" stroke-miterlimit="10" d="M174.72 1h9.194l4.17 25.564.718 4.62 1.48 10.045c.24 1.704.456 3.258.65 4.664.194 1.405.365 2.675.516 3.812l.45 3.408c.088-.687.163-1.3.223-1.84s.12-.985.18-1.344l1.21-8.028 1.57-10.54c.15-.956.292-1.838.427-2.645a94.22 94.22 0 0 1 .382-2.153L200.372 1h8.7l-13.588 69.246h-7.4L174.72 1z"/><path clip-path="url(#b)" fill="#5B5B5B" d="M223.37 1h24.8v7.896H232.7v21.93h13.723v7.893H232.7v23.634h15.47v7.893h-24.8z"/><path clip-path="url(#b)" fill="none" stroke="#5B5B5B" stroke-width="2" stroke-miterlimit="10" d="M223.37 1h24.8v7.896H232.7v21.93h13.723v7.893H232.7v23.634h15.47v7.893h-24.8z"/><path clip-path="url(#b)" fill="#5B5B5B" d="M1 89.667h11.48c3.5 0 6.444.39 8.836 1.166 2.212.748 4.186 2.08 5.92 3.992 2.6 2.87 4.454 6.607 5.562 11.212 1.105 4.456 1.66 10.84 1.66 19.15 0 7.625-.614 13.843-1.84 18.656-1.196 4.605-3.17 8.118-5.92 10.54-3.38 3.02-9.433 4.53-18.164 4.53H1V89.666zm9.328 61.084c5.68 0 9.478-1.718 11.392-5.157 1.973-3.438 2.96-10.12 2.96-20.047 0-10.674-.942-18.014-2.826-22.02-1.883-4.006-5.337-6.01-10.36-6.01h-1.166v53.235z"/><path clip-path="url(#b)" fill="none" stroke="#5B5B5B" stroke-width="2" stroke-miterlimit="10" d="M1 89.667h11.48c3.5 0 6.444.39 8.836 1.166 2.212.748 4.186 2.08 5.92 3.992 2.6 2.87 4.454 6.607 5.562 11.212 1.105 4.456 1.66 10.84 1.66 19.15 0 7.625-.614 13.843-1.84 18.656-1.196 4.605-3.17 8.118-5.92 10.54-3.38 3.02-9.433 4.53-18.164 4.53H1V89.666zm9.328 61.084c5.68 0 9.478-1.718 11.392-5.157 1.973-3.438 2.96-10.12 2.96-20.047 0-10.674-.942-18.014-2.826-22.02-1.883-4.006-5.337-6.01-10.36-6.01h-1.166v53.235z"/><path clip-path="url(#b)" fill="#5B5B5B" d="M52.926 89.667h9.328v69.246h-9.328z"/><path clip-path="url(#b)" fill="none" stroke="#5B5B5B" stroke-width="2" stroke-miterlimit="10" d="M52.926 89.667h9.328v69.246h-9.328z"/><path clip-path="url(#b)" fill="#5B5B5B" d="M98.706 122.497h16.953v2.69c0 13.485-1.183 22.59-3.544 27.313-2.333 4.844-6.698 7.267-13.096 7.267-6.608 0-11.317-2.692-14.127-8.074-2.78-5.382-4.17-14.425-4.17-27.133 0-14.53 1.524-24.203 4.574-29.018 2.87-4.514 7.28-6.77 13.23-6.77 4.544 0 8.087 1.09 10.63 3.272 2.57 2.213 4.573 5.846 6.008 10.898l-8.7 3.633c-.39-1.823-.822-3.355-1.3-4.597s-1.003-2.204-1.57-2.894c-1.137-1.404-2.84-2.107-5.114-2.107-3.108 0-5.23 1.915-6.367 5.74-1.136 4.008-1.704 11.197-1.704 21.572 0 10.494.582 17.595 1.748 21.302 1.166 3.708 3.363 5.562 6.593 5.562 2.96 0 5.04-1.315 6.235-3.946 1.226-2.81 1.838-7.325 1.838-13.545V130.39h-8.117v-7.893z"/><path clip-path="url(#b)" fill="none" stroke="#5B5B5B" stroke-width="2" stroke-miterlimit="10" d="M98.706 122.497h16.953v2.69c0 13.485-1.183 22.59-3.544 27.313-2.333 4.844-6.698 7.267-13.096 7.267-6.608 0-11.317-2.692-14.127-8.074-2.78-5.382-4.17-14.425-4.17-27.133 0-14.53 1.524-24.203 4.574-29.018 2.87-4.514 7.28-6.77 13.23-6.77 4.544 0 8.087 1.09 10.63 3.272 2.57 2.213 4.573 5.846 6.008 10.898l-8.7 3.633c-.39-1.823-.822-3.355-1.3-4.597s-1.003-2.204-1.57-2.894c-1.137-1.404-2.84-2.107-5.114-2.107-3.108 0-5.23 1.915-6.367 5.74-1.136 4.008-1.704 11.197-1.704 21.572 0 10.494.582 17.595 1.748 21.302 1.166 3.708 3.363 5.562 6.593 5.562 2.96 0 5.04-1.315 6.235-3.946 1.226-2.81 1.838-7.325 1.838-13.545V130.39h-8.117v-7.893z"/><path clip-path="url(#b)" fill="#5B5B5B" d="M134.127 89.667h9.328v69.246h-9.328z"/><path clip-path="url(#b)" fill="none" stroke="#5B5B5B" stroke-width="2" stroke-miterlimit="10" d="M134.127 89.667h9.328v69.246h-9.328z"/><path clip-path="url(#b)" fill="#5B5B5B" d="M157.798 89.667h30.362v8.164h-10.45v61.084h-9.148V97.83h-10.764z"/><path clip-path="url(#b)" fill="none" stroke="#5B5B5B" stroke-width="2" stroke-miterlimit="10" d="M157.798 89.667h30.362v8.164h-10.45v61.084h-9.148V97.83h-10.764z"/><path clip-path="url(#b)" fill="#5B5B5B" d="M211.067 89.667h7.266l14.845 69.246h-9.238l-2.602-13.5h-13.724l-2.646 13.5h-8.97l15.07-69.246zm8.925 48.527l-2.062-11.033c-1.375-7.503-2.497-15.516-3.363-24.037a243.53 243.53 0 0 1-1.615 12.625 429.948 429.948 0 0 1-2.332 13.566l-1.704 8.88h11.076z"/><path clip-path="url(#b)" fill="none" stroke="#5B5B5B" stroke-width="2" stroke-miterlimit="10" d="M211.067 89.667h7.266l14.845 69.246h-9.238l-2.602-13.5h-13.724l-2.646 13.5h-8.97l15.07-69.246zm8.925 48.527l-2.062-11.033c-1.375-7.503-2.497-15.516-3.363-24.037a243.53 243.53 0 0 1-1.615 12.625 429.948 429.948 0 0 1-2.332 13.566l-1.704 8.88h11.076z"/><path clip-path="url(#b)" fill="#5B5B5B" d="M247.835 89.667h9.328v61.354h15.25v7.894h-24.578z"/><path clip-path="url(#b)" fill="none" stroke="#5B5B5B" stroke-width="2" stroke-miterlimit="10" d="M247.835 89.667h9.328v61.354h15.25v7.894h-24.578z"/></svg>