<?xml version="1.0" encoding="utf-8"?>
<!-- Generator: Adobe Illustrator 15.0.0, SVG Export Plug-In . SVG Version: 6.00 Build 0)  -->
<!DOCTYPE svg PUBLIC "-//W3C//DTD SVG 1.0//EN" "http://www.w3.org/TR/2001/REC-SVG-20010904/DTD/svg10.dtd">
<svg version="1.0" id="Layer_1" xmlns="http://www.w3.org/2000/svg" xmlns:xlink="http://www.w3.org/1999/xlink" x="0px" y="0px"
	 width="273.412px" height="160.766px" viewBox="0 0 273.412 160.766" enable-background="new 0 0 273.412 160.766"
	 xml:space="preserve">
<g>
	<defs>
		<rect id="SVGID_1_" width="273.412" height="160.766"/>
	</defs>
	<clipPath id="SVGID_2_">
		<use xlink:href="#SVGID_1_"  overflow="visible"/>
	</clipPath>
	<path clip-path="url(#SVGID_2_)" fill="#5B5B5B" d="M13.257,1h8.701l9.283,27.627c2.691,7.804,5.068,16.131,7.131,24.98
		c-0.748-5.351-1.301-10.195-1.659-14.531c-0.359-4.334-0.539-8.416-0.539-12.243V1h9.329v69.246h-8.729l-10.431-31.17
		c-0.955-2.899-1.858-5.875-2.709-8.925c-0.85-3.048-1.634-6.248-2.35-9.596c-0.06-0.419-0.157-0.927-0.291-1.526
		c-0.135-0.597-0.291-1.285-0.47-2.062c0.089,0.777,0.163,1.442,0.224,1.996c0.059,0.553,0.104,1.023,0.134,1.412l0.494,7.041
		l0.531,8.566c0.032,0.479,0.056,1.062,0.072,1.749c0.016,0.688,0.025,1.465,0.025,2.332l0.493,30.183h-9.239V1z"/>
	<path clip-path="url(#SVGID_2_)" fill="none" stroke="#5B5B5B" stroke-width="2" stroke-miterlimit="10" d="M13.257,1h8.701
		l9.283,27.627c2.691,7.804,5.068,16.131,7.131,24.98c-0.748-5.351-1.301-10.195-1.659-14.531
		c-0.359-4.334-0.539-8.416-0.539-12.243V1h9.329v69.246h-8.729l-10.431-31.17c-0.955-2.899-1.858-5.875-2.709-8.925
		c-0.85-3.048-1.634-6.248-2.35-9.596c-0.06-0.419-0.157-0.927-0.291-1.526c-0.135-0.597-0.291-1.285-0.47-2.062
		c0.089,0.777,0.163,1.442,0.224,1.996c0.059,0.553,0.104,1.023,0.134,1.412l0.494,7.041l0.531,8.566
		c0.032,0.479,0.056,1.062,0.072,1.749c0.016,0.688,0.025,1.465,0.025,2.332l0.493,30.183h-9.239V1z"/>
	<path clip-path="url(#SVGID_2_)" fill="#5B5B5B" d="M76.574,1.001h7.265l14.845,69.246h-9.239l-2.601-13.499H73.121l-2.646,13.499
		h-8.97L76.574,1.001z M85.499,49.527l-2.063-11.033c-1.375-7.504-2.497-15.517-3.364-24.038c-0.419,4.156-0.957,8.364-1.615,12.625
		c-0.657,4.259-1.435,8.783-2.332,13.566l-1.704,8.88H85.499z"/>
	<path clip-path="url(#SVGID_2_)" fill="none" stroke="#5B5B5B" stroke-width="2" stroke-miterlimit="10" d="M76.574,1.001h7.265
		l14.845,69.246h-9.239l-2.601-13.499H73.121l-2.646,13.499h-8.97L76.574,1.001z M85.499,49.527l-2.063-11.033
		c-1.375-7.504-2.497-15.517-3.364-24.038c-0.419,4.156-0.957,8.364-1.615,12.625c-0.657,4.259-1.435,8.783-2.332,13.566
		l-1.704,8.88H85.499z"/>
	<polygon clip-path="url(#SVGID_2_)" fill="#5B5B5B" points="106.344,1 136.706,1 136.706,9.164 126.257,9.164 126.257,70.247 
		117.107,70.247 117.107,9.164 106.344,9.164 	"/>
	<polygon clip-path="url(#SVGID_2_)" fill="none" stroke="#5B5B5B" stroke-width="2" stroke-miterlimit="10" points="106.344,1 
		136.706,1 136.706,9.164 126.257,9.164 126.257,70.247 117.107,70.247 117.107,9.164 106.344,9.164 	"/>
	<rect x="151.049" y="1" clip-path="url(#SVGID_2_)" fill="#5B5B5B" width="9.329" height="69.246"/>
	
		<rect x="151.049" y="1" clip-path="url(#SVGID_2_)" fill="none" stroke="#5B5B5B" stroke-width="2" stroke-miterlimit="10" width="9.329" height="69.246"/>
	<path clip-path="url(#SVGID_2_)" fill="#5B5B5B" d="M174.72,1h9.194l4.171,25.564l0.717,4.62l1.48,10.045
		c0.239,1.705,0.456,3.259,0.65,4.665c0.194,1.405,0.365,2.675,0.516,3.812l0.449,3.408c0.089-0.687,0.164-1.301,0.224-1.839
		s0.119-0.986,0.179-1.345l1.211-8.028l1.57-10.54c0.149-0.956,0.291-1.838,0.426-2.645c0.135-0.808,0.262-1.526,0.382-2.153
		L200.373,1h8.701l-13.589,69.246h-7.4L174.72,1z"/>
	<path clip-path="url(#SVGID_2_)" fill="none" stroke="#5B5B5B" stroke-width="2" stroke-miterlimit="10" d="M174.72,1h9.194
		l4.171,25.564l0.717,4.62l1.48,10.045c0.239,1.705,0.456,3.259,0.65,4.665c0.194,1.405,0.365,2.675,0.516,3.812l0.449,3.408
		c0.089-0.687,0.164-1.301,0.224-1.839s0.119-0.986,0.179-1.345l1.211-8.028l1.57-10.54c0.149-0.956,0.291-1.838,0.426-2.645
		c0.135-0.808,0.262-1.526,0.382-2.153L200.373,1h8.701l-13.589,69.246h-7.4L174.72,1z"/>
	<polygon clip-path="url(#SVGID_2_)" fill="#5B5B5B" points="223.371,1 248.171,1 248.171,8.896 232.7,8.896 232.7,30.825 
		246.423,30.825 246.423,38.719 232.7,38.719 232.7,62.354 248.171,62.354 248.171,70.247 223.371,70.247 	"/>
	<polygon clip-path="url(#SVGID_2_)" fill="none" stroke="#5B5B5B" stroke-width="2" stroke-miterlimit="10" points="223.371,1 
		248.171,1 248.171,8.896 232.7,8.896 232.7,30.825 246.423,30.825 246.423,38.719 232.7,38.719 232.7,62.354 248.171,62.354 
		248.171,70.247 223.371,70.247 	"/>
	<path clip-path="url(#SVGID_2_)" fill="#5B5B5B" d="M1,89.667h11.481c3.498,0,6.443,0.39,8.835,1.166
		c2.212,0.748,4.186,2.079,5.92,3.992c2.601,2.87,4.454,6.607,5.562,11.212c1.105,4.456,1.659,10.839,1.659,19.151
		c0,7.624-0.613,13.842-1.839,18.655c-1.196,4.605-3.17,8.118-5.92,10.54c-3.379,3.02-9.433,4.529-18.164,4.529H1V89.667z
		 M10.328,150.751c5.681,0,9.478-1.719,11.392-5.158c1.973-3.438,2.96-10.12,2.96-20.047c0-10.674-0.942-18.014-2.826-22.021
		c-1.883-4.005-5.337-6.009-10.36-6.009h-1.166V150.751z"/>
	<path clip-path="url(#SVGID_2_)" fill="none" stroke="#5B5B5B" stroke-width="2" stroke-miterlimit="10" d="M1,89.667h11.481
		c3.498,0,6.443,0.39,8.835,1.166c2.212,0.748,4.186,2.079,5.92,3.992c2.601,2.87,4.454,6.607,5.562,11.212
		c1.105,4.456,1.659,10.839,1.659,19.151c0,7.624-0.613,13.842-1.839,18.655c-1.196,4.605-3.17,8.118-5.92,10.54
		c-3.379,3.02-9.433,4.529-18.164,4.529H1V89.667z M10.328,150.751c5.681,0,9.478-1.719,11.392-5.158
		c1.973-3.438,2.96-10.12,2.96-20.047c0-10.674-0.942-18.014-2.826-22.021c-1.883-4.005-5.337-6.009-10.36-6.009h-1.166V150.751z"/>
	<rect x="52.926" y="89.667" clip-path="url(#SVGID_2_)" fill="#5B5B5B" width="9.328" height="69.246"/>
	
		<rect x="52.926" y="89.667" clip-path="url(#SVGID_2_)" fill="none" stroke="#5B5B5B" stroke-width="2" stroke-miterlimit="10" width="9.328" height="69.246"/>
	<path clip-path="url(#SVGID_2_)" fill="#5B5B5B" d="M98.706,122.497h16.953v2.691c0,13.484-1.182,22.589-3.543,27.312
		c-2.333,4.844-6.698,7.267-13.096,7.267c-6.608,0-11.317-2.692-14.127-8.074c-2.781-5.382-4.171-14.425-4.171-27.133
		c0-14.531,1.525-24.203,4.575-29.018c2.87-4.514,7.279-6.771,13.229-6.771c4.545,0,8.088,1.092,10.63,3.273
		c2.571,2.213,4.574,5.846,6.009,10.898l-8.7,3.633c-0.389-1.823-0.822-3.355-1.301-4.597s-1.002-2.204-1.569-2.894
		c-1.137-1.404-2.841-2.107-5.114-2.107c-3.109,0-5.232,1.915-6.368,5.74c-1.136,4.008-1.704,11.197-1.704,21.572
		c0,10.495,0.583,17.596,1.749,21.303c1.166,3.708,3.363,5.562,6.593,5.562c2.96,0,5.038-1.315,6.234-3.946
		c1.226-2.811,1.838-7.325,1.838-13.545v-1.883v-1.391h-8.117V122.497z"/>
	<path clip-path="url(#SVGID_2_)" fill="none" stroke="#5B5B5B" stroke-width="2" stroke-miterlimit="10" d="M98.706,122.497h16.953
		v2.691c0,13.484-1.182,22.589-3.543,27.312c-2.333,4.844-6.698,7.267-13.096,7.267c-6.608,0-11.317-2.692-14.127-8.074
		c-2.781-5.382-4.171-14.425-4.171-27.133c0-14.531,1.525-24.203,4.575-29.018c2.87-4.514,7.279-6.771,13.229-6.771
		c4.545,0,8.088,1.092,10.63,3.273c2.571,2.213,4.574,5.846,6.009,10.898l-8.7,3.633c-0.389-1.823-0.822-3.355-1.301-4.597
		s-1.002-2.204-1.569-2.894c-1.137-1.404-2.841-2.107-5.114-2.107c-3.109,0-5.232,1.915-6.368,5.74
		c-1.136,4.008-1.704,11.197-1.704,21.572c0,10.495,0.583,17.596,1.749,21.303c1.166,3.708,3.363,5.562,6.593,5.562
		c2.96,0,5.038-1.315,6.234-3.946c1.226-2.811,1.838-7.325,1.838-13.545v-1.883v-1.391h-8.117V122.497z"/>
	<rect x="134.127" y="89.667" clip-path="url(#SVGID_2_)" fill="#5B5B5B" width="9.328" height="69.246"/>
	
		<rect x="134.127" y="89.667" clip-path="url(#SVGID_2_)" fill="none" stroke="#5B5B5B" stroke-width="2" stroke-miterlimit="10" width="9.328" height="69.246"/>
	<polygon clip-path="url(#SVGID_2_)" fill="#5B5B5B" points="157.798,89.667 188.16,89.667 188.16,97.831 177.711,97.831 
		177.711,158.914 168.562,158.914 168.562,97.831 157.798,97.831 	"/>
	<polygon clip-path="url(#SVGID_2_)" fill="none" stroke="#5B5B5B" stroke-width="2" stroke-miterlimit="10" points="
		157.798,89.667 188.16,89.667 188.16,97.831 177.711,97.831 177.711,158.914 168.562,158.914 168.562,97.831 157.798,97.831 	"/>
	<path clip-path="url(#SVGID_2_)" fill="#5B5B5B" d="M211.067,89.667h7.266l14.845,69.246h-9.238l-2.602-13.499h-13.724
		l-2.646,13.499h-8.97L211.067,89.667z M219.992,138.194l-2.062-11.033c-1.375-7.504-2.497-15.517-3.363-24.038
		c-0.42,4.156-0.958,8.364-1.615,12.625c-0.658,4.259-1.435,8.783-2.332,13.566l-1.704,8.88H219.992z"/>
	<path clip-path="url(#SVGID_2_)" fill="none" stroke="#5B5B5B" stroke-width="2" stroke-miterlimit="10" d="M211.067,89.667h7.266
		l14.845,69.246h-9.238l-2.602-13.499h-13.724l-2.646,13.499h-8.97L211.067,89.667z M219.992,138.194l-2.062-11.033
		c-1.375-7.504-2.497-15.517-3.363-24.038c-0.42,4.156-0.958,8.364-1.615,12.625c-0.658,4.259-1.435,8.783-2.332,13.566l-1.704,8.88
		H219.992z"/>
	<polygon clip-path="url(#SVGID_2_)" fill="#5B5B5B" points="247.835,89.667 257.163,89.667 257.163,151.021 272.412,151.021 
		272.412,158.914 247.835,158.914 	"/>
	<polygon clip-path="url(#SVGID_2_)" fill="none" stroke="#5B5B5B" stroke-width="2" stroke-miterlimit="10" points="
		247.835,89.667 257.163,89.667 257.163,151.021 272.412,151.021 272.412,158.914 247.835,158.914 	"/>
</g>
</svg>
